:SAMPLES-PER-SECOND 30
:FULLY-SPECIFIED
:DEGREES
320
root  6.63973 31.675 -61.1127 -161.518 1.87894 178.397
RightUpLeg  -68.6041 -6.60089 11.4702
RightLeg  65.7572 12.6106 -9.39748
RightFoot  -17.767 -0.136691 -4.8599
RightToes  -1.16415e-010 -3.18055e-015 -2.98177e-016
Spine  38.0199 -4.0423 3.80441
Spine1  -6.96263 -4.117 7.22244
HEad  -20.633 0.370882 1.13226
LeftShoulder1  -3.88251e-019 9.70628e-020 -3.87848e-018
LeftArm  -22.2223 24.8856 -59.5783
LeftForeArm  4.0842 -30.9081 6.86243
LeftHand  -5.67281 -10.638 40.6276
RightShoulder  5.14862 9.33721 25.189
RightArm  15.2565 -45.0016 16.1527
RightForeArm  -10.2105 38.5858 -21.2237
RightHand  -1.43558 1.33845 -24.1193
LeftUpLeg  -22.9668 5.87376 3.09618
LeftLeg  57.2155 -10.3422 6.38022
LeftFoot  -46.4802 -3.94203 -12.6672
LeftToes  1.69338e-011 3.79281e-011 -2.20049e-011
321
root  6.632 31.3487 -60.9924 -161.724 1.27727 178.941
RightUpLeg  -69.4555 -6.28387 11.8806
RightLeg  67.0187 12.4923 -10.3864
RightFoot  -17.8424 -0.121171 -4.40408
RightToes  -1.16415e-010 -3.18055e-015 -2.98177e-016
Spine  38.2568 -4.14615 4.08978
Spine1  -6.7493 -4.14294 7.1477
HEad  -20.7116 0.184592 1.42216
LeftShoulder1  -3.88251e-019 9.70628e-020 -3.87848e-018
LeftArm  -22.2801 24.7399 -59.3868
LeftForeArm  4.40209 -32.378 7.29456
LeftHand  -5.65227 -10.4307 40.992
RightShoulder  5.1726 9.36583 25.2711
RightArm  15.6955 -45.4018 16.1034
RightForeArm  -9.88093 38.8273 -21.4197
RightHand  -1.5167 1.60688 -24.5068
LeftUpLeg  -24.1896 6.11181 3.87698
LeftLeg  59.8896 -10.4159 6.90045
LeftFoot  -46.9876 -4.07829 -12.9055
LeftToes  1.69338e-011 3.79281e-011 -2.20049e-011
322
root  6.60639 30.933 -60.8426 -162.181 0.603577 179.64
RightUpLeg  -70.3037 -6.08189 12.4607
RightLeg  68.5947 12.4951 -11.3491
RightFoot  -18.1331 -0.122295 -4.19308
RightToes  -1.16415e-010 -3.18055e-015 -2.98177e-016
Spine  38.4559 -4.24864 4.42158
Spine1  -6.30926 -4.20454 7.34866
HEad  -20.6454 -0.00331445 1.54972
LeftShoulder1  -3.88251e-019 9.70628e-020 -3.87848e-018
LeftArm  -22.4318 24.4353 -59.1641
LeftForeArm  5.48028 -33.8596 7.78103
LeftHand  -5.64277 -10.2256 41.4327
RightShoulder  5.07747 9.33615 24.7801
RightArm  15.3732 -46.1323 16.8885
RightForeArm  -8.68126 38.9385 -21.5679
RightHand  -1.59661 1.91244 -24.7322
LeftUpLeg  -25.6139 5.96525 4.80543
LeftLeg  63.393 -10.4365 7.91081
LeftFoot  -47.1758 -4.2661 -13.4342
LeftToes  1.69338e-011 3.79281e-011 -2.20049e-011
323
root  6.55664 30.4416 -60.6803 -162.886 0.0503693 -179.545
RightUpLeg  -71.0934 -5.82753 13.0643
RightLeg  70.4402 12.6234 -12.2694
RightFoot  -18.5274 -0.125195 -3.97518
RightToes  -1.16415e-010 -3.18055e-015 -2.98177e-016
Spine  38.7011 -4.33475 4.82755
Spine1  -5.88244 -4.18296 7.4837
HEad  -20.2994 -0.123493 1.68749
LeftShoulder1  -3.88251e-019 9.70628e-020 -3.87848e-018
LeftArm  -22.6801 24.0038 -59.0153
LeftForeArm  6.37826 -35.2146 8.23826
LeftHand  -5.69176 -10.2386 41.7276
RightShoulder  5.03015 9.32831 24.5215
RightArm  15.1393 -46.5284 17.3884
RightForeArm  -7.7796 39.0923 -21.7321
RightHand  -1.56505 1.88497 -24.34
LeftUpLeg  -26.9246 5.28648 5.86921
LeftLeg  67.3884 -10.6633 8.89071
LeftFoot  -47.3355 -4.58279 -14.38
LeftToes  1.69338e-011 3.79281e-011 -2.20049e-011
324
root  6.47978 29.9159 -60.5086 -163.82 -0.224106 -178.717
RightUpLeg  -71.7586 -5.52447 13.6016
RightLeg  72.4278 12.8839 -13.0075
RightFoot  -18.8826 -0.118266 -3.61071
RightToes  -1.16415e-010 -3.18055e-015 -2.98177e-016
Spine  38.9693 -4.39002 5.1953
Spine1  -5.38488 -4.05694 7.39352
HEad  -19.8577 -0.179263 1.77698
LeftShoulder1  -3.88251e-019 9.70628e-020 -3.87848e-018
LeftArm  -22.9622 23.4325 -58.9296
LeftForeArm  6.67533 -36.3996 8.62909
LeftHand  -5.75373 -10.3207 41.9348
RightShoulder  5.08732 9.36221 24.7867
RightArm  15.1524 -46.2045 17.4256
RightForeArm  -7.39415 39.1671 -21.8093
RightHand  -1.47425 1.63377 -23.7555
LeftUpLeg  -27.8171 4.34966 6.96618
LeftLeg  71.4266 -11.19 9.24816
LeftFoot  -47.7423 -5.05507 -15.6878
LeftToes  1.69338e-011 3.79281e-011 -2.20049e-011
325
root  6.37545 29.3939 -60.326 -164.888 -0.241425 -177.955
RightUpLeg  -72.2703 -5.31812 14.0764
RightLeg  74.3799 13.2487 -13.4008
RightFoot  -19.2734 -0.112202 -3.28805
RightToes  -1.16415e-010 -3.18055e-015 -2.98177e-016
Spine  39.1234 -4.36898 5.39714
Spine1  -4.62827 -3.88566 7.2889
HEad  -19.5517 -0.238643 1.71624
LeftShoulder1  -3.88251e-019 9.70628e-020 -3.87848e-018
LeftArm  -23.3682 22.7315 -58.9363
LeftForeArm  6.69478 -37.3972 8.95753
LeftHand  -5.76079 -10.3157 41.9938
RightShoulder  5.12862 9.38568 24.9795
RightArm  14.6894 -45.5909 17.9044
RightForeArm  -6.67008 38.9033 -21.6508
RightHand  -1.43392 1.50056 -23.5502
LeftUpLeg  -28.2659 3.52211 7.94863
LeftLeg  75.1694 -11.8105 9.05665
LeftFoot  -48.4511 -5.59317 -17.0085
LeftToes  1.69338e-011 3.79281e-011 -2.20049e-011
326
root  6.2448 28.8968 -60.1412 -165.969 -0.13588 -177.273
RightUpLeg  -72.6756 -5.23388 14.4768
RightLeg  76.1774 13.6379 -13.546
RightFoot  -19.6961 -0.113595 -3.12478
RightToes  -1.16415e-010 -3.18055e-015 -2.98177e-016
Spine  39.1519 -4.30836 5.50843
Spine1  -3.80384 -3.7191 7.2344
HEad  -19.3452 -0.187114 1.62496
LeftShoulder1  -3.88251e-019 9.70628e-020 -3.87848e-018
LeftArm  -23.8273 21.9883 -59.0614
LeftForeArm  6.71594 -38.1562 9.21442
LeftHand  -5.72377 -10.2935 41.8041
RightShoulder  5.11211 9.39566 24.8653
RightArm  13.5557 -45.0995 19.0053
RightForeArm  -5.36676 38.3608 -21.3201
RightHand  -1.47776 1.67088 -23.6891
LeftUpLeg  -28.47 2.91578 8.71465
LeftLeg  78.4985 -12.324 8.90967
LeftFoot  -49.252 -6.075 -18.0511
LeftToes  1.69338e-011 3.79281e-011 -2.20049e-011
327
root  6.0942 28.4472 -59.9625 -167.018 -0.0311584 -176.66
RightUpLeg  -73.0226 -5.13826 14.7525
RightLeg  77.7389 13.9655 -13.7908
RightFoot  -19.8718 -0.107257 -2.94312
RightToes  -1.16415e-010 -3.18055e-015 -2.98177e-016
Spine  39.2115 -4.3251 5.71317
Spine1  -3.30609 -3.57087 7.04314
HEad  -19.0936 0.291084 1.6433
LeftShoulder1  -3.88251e-019 9.70628e-020 -3.87848e-018
LeftArm  -24.0159 21.2393 -59.2849
LeftForeArm  6.63512 -38.4978 9.32758
LeftHand  -5.73562 -10.3376 41.7725
RightShoulder  5.16297 9.451 25.0501
RightArm  12.3435 -44.4567 19.8238
RightForeArm  -4.32111 37.8931 -21.0354
RightHand  -1.5721 2.10809 -23.7557
LeftUpLeg  -28.6376 2.37241 9.26779
LeftLeg  81.5132 -12.7394 9.08022
LeftFoot  -49.7581 -6.44725 -18.8821
LeftToes  1.69338e-011 3.79281e-011 -2.20049e-011
328
root  5.93822 28.0704 -59.7858 -168.048 0.00502014 -176.122
RightUpLeg  -73.2697 -4.94575 14.8825
RightLeg  78.9473 14.1892 -14.3492
RightFoot  -19.6657 -0.0833368 -2.59797
RightToes  -1.16415e-010 -3.18055e-015 -2.98177e-016
Spine  39.3663 -4.39085 5.96644
Spine1  -3.18378 -3.4275 6.83134
HEad  -18.8663 1.34388 1.70439
LeftShoulder1  -3.88251e-019 9.70628e-020 -3.87848e-018
LeftArm  -23.8448 20.3984 -59.7034
LeftForeArm  6.363 -38.2212 9.21912
LeftHand  -5.85696 -10.3891 42.4434
RightShoulder  5.32824 9.55225 25.7968
RightArm  11.2508 -43.352 19.9809
RightForeArm  -4.07416 37.6432 -20.8685
RightHand  -1.6639 2.61773 -23.5711
LeftUpLeg  -28.8793 1.71636 9.69061
LeftLeg  84.3598 -13.1427 9.25116
LeftFoot  -49.6916 -6.71681 -19.7133
LeftToes  1.69338e-011 3.79281e-011 -2.20049e-011
329
root  5.79263 27.7679 -59.6071 -169.029 -0.0532227 -175.688
RightUpLeg  -73.3423 -4.73702 14.8801
RightLeg  79.757 14.327 -15.0321
RightFoot  -19.4153 -0.057142 -2.20488
RightToes  -1.16415e-010 -3.18055e-015 -2.98177e-016
Spine  39.4637 -4.30374 5.99423
Spine1  -3.12953 -3.26298 7.03623
HEad  -18.8403 2.72744 1.77418
LeftShoulder1  -3.88251e-019 9.70628e-020 -3.87848e-018
LeftArm  -23.6382 19.4144 -60.5186
LeftForeArm  6.0157 -37.4398 8.93892
LeftHand  -5.99937 -10.3396 43.5062
RightShoulder  5.46199 9.62102 26.4192
RightArm  9.74061 -42.1576 20.2479
RightForeArm  -4.17768 37.4319 -20.7123
RightHand  -1.71665 2.92687 -23.4311
LeftUpLeg  -29.1682 0.990133 10.0447
LeftLeg  86.9549 -13.5213 9.1245
LeftFoot  -49.2886 -6.90948 -20.5186
LeftToes  1.69338e-011 3.79281e-011 -2.20049e-011
